<?xml version="1.0" standalone="no"?>
<!DOCTYPE svg PUBLIC "-//W3C//DTD SVG 20010904//EN"
 "http://www.w3.org/TR/2001/REC-SVG-20010904/DTD/svg10.dtd">
<svg version="1.0" xmlns="http://www.w3.org/2000/svg"
 width="1048.000000pt" height="1048.000000pt" viewBox="0 0 1048.000000 1048.000000"
 preserveAspectRatio="xMidYMid meet">
<metadata>
Created by potrace 1.11, written by Peter Selinger 2001-2013
</metadata>
<g transform="translate(0.000000,1048.000000) scale(0.100000,-0.100000)"
fill="#000000" stroke="none">
<path d="M1698 6939 l-1698 -1699 1700 -1700 1699 -1700 460 461 460 460 461
-461 460 -460 211 211 211 211 -233 233 c-129 129 -798 799 -1487 1489 l-1253
1256 815 815 815 815 246 -245 c135 -134 245 -247 245 -250 0 -4 -254 -260
-564 -570 l-564 -565 1700 -1700 1699 -1700 1700 1700 1699 1700 -847 848
c-467 466 -1231 1231 -1700 1700 l-851 852 -456 -455 c-250 -250 -460 -455
-466 -455 -5 0 -215 205 -465 455 l-455 455 -205 -206 -206 -205 141 -142 c78
-78 429 -432 780 -787 352 -355 844 -852 1095 -1105 251 -253 566 -571 701
-708 l246 -247 -816 -815 -815 -814 -223 223 c-123 123 -234 235 -247 249
l-24 26 566 565 566 566 -1700 1700 c-934 935 -1700 1700 -1701 1699 -2 0
-767 -765 -1700 -1700z m1947 606 c135 -135 245 -247 245 -250 0 -3 -461 -466
-1025 -1030 l-1024 -1025 1024 -1025 c564 -564 1025 -1027 1025 -1030 0 -2
-111 -115 -246 -250 l-246 -245 -1275 1275 -1275 1275 1274 1275 c700 700
1274 1274 1276 1274 1 1 113 -109 247 -244z m5344 -1663 l642 -642 -1274
-1275 -1275 -1275 -246 245 c-135 135 -246 248 -246 250 0 3 461 466 1025
1030 l1024 1026 -1024 1024 c-564 564 -1025 1028 -1025 1030 0 3 111 116 246
251 l246 245 632 -633 c348 -348 922 -922 1275 -1276z m-3218 -464 l178 -177
-354 -355 -355 -354 -172 172 c-95 95 -255 254 -355 354 l-182 182 355 354
354 355 177 -177 c97 -97 257 -257 354 -354z"/>
</g>
</svg>
