<svg id="Objects" xmlns="http://www.w3.org/2000/svg" xmlns:xlink="http://www.w3.org/1999/xlink" viewBox="0 0 261.87 169.88"><defs><style>.cls-1{fill:url(#linear-gradient);}</style><linearGradient id="linear-gradient" x1="532.21" y1="389.58" x2="270.87" y2="389.58" gradientUnits="userSpaceOnUse"><stop offset="0" stop-color="#00a79d"/><stop offset="1" stop-color="#262262"/></linearGradient></defs><title>logo</title><path class="cls-1" d="M446,304.64l-23,23-23-23L389.74,314.9l74,74.68L423,430.3l-12.39-12.39,28.33-28.33L354,304.64l-84.94,84.94L354,474.52l23-23,23,23L410.53,464l-74.26-74.41L377,348.86l12.39,12.39-28.33,28.33L446,474.52l84.94-84.94ZM315.06,389.58l51.33,51.33L354,453.3l-63.72-63.72L354,325.86l12.39,12.39Zm67.21,0L400,371.86l17.72,17.72L400,407.3Zm51.33,51.33,51.33-51.33-51.33-51.33L446,325.86l63.72,63.72L446,453.3Z" transform="translate(-269.06 -304.64)"/></svg>